<svg xmlns="http://www.w3.org/2000/svg" width="720" height="770" viewBox="0 0 720 770" font-family="Inconsolata, 'SF Mono', 'DejaVu Sans Mono', Menlo, monospace"><rect x="0" y="0" width="720" height="770" rx="0" fill="#eeeeee"/><text x="40" y="40" font-family="Inconsolata, 'SF Mono', 'DejaVu Sans Mono', Menlo, monospace" font-size="20" fill="#111111" font-weight="bold" text-anchor="start">evan-proxy iOS — light theme</text><rect x="34" y="64" width="312" height="652" rx="30" fill="#cccccc"/><rect x="40" y="70" width="300" height="640" rx="26" fill="#ffffff"/><text x="56" y="85" font-family="Inconsolata, 'SF Mono', 'DejaVu Sans Mono', Menlo, monospace" font-size="8.5" fill="#666666" font-weight="bold" text-anchor="start">9:41</text><text x="324" y="85" font-family="Inconsolata, 'SF Mono', 'DejaVu Sans Mono', Menlo, monospace" font-size="8.5" fill="#666666" font-weight="normal" text-anchor="end">5G  100%</text><clipPath id="clip4070"><rect x="40" y="70" width="300" height="640" rx="26"/></clipPath><g clip-path="url(#clip4070)"><text x="56" y="96" font-family="Inconsolata, 'SF Mono', 'DejaVu Sans Mono', Menlo, monospace" font-size="16" fill="#111111" font-weight="bold" text-anchor="start">evan-proxy</text><text x="324" y="96" font-family="Inconsolata, 'SF Mono', 'DejaVu Sans Mono', Menlo, monospace" font-size="9" fill="#666666" font-weight="normal" text-anchor="end">dark  ·  logout</text><line x1="56" y1="108" x2="324" y2="108" stroke="#dddddd" stroke-width="1"/><text x="56" y="128" font-family="Inconsolata, 'SF Mono', 'DejaVu Sans Mono', Menlo, monospace" font-size="9" fill="#666666" font-weight="bold" text-anchor="start" letter-spacing="1.2">TOP SITES · 1H</text><line x1="56" y1="134" x2="324" y2="134" stroke="#eeeeee" stroke-width="1"/><rect x="52" y="140" width="276" height="92" rx="3" fill="#f8f8f8" stroke="#dddddd" stroke-width="1"/><text x="64" y="158" font-family="Inconsolata, 'SF Mono', 'DejaVu Sans Mono', Menlo, monospace" font-size="9" fill="#999999" font-weight="normal" text-anchor="start">1.</text><text x="82" y="158" font-family="Inconsolata, 'SF Mono', 'DejaVu Sans Mono', Menlo, monospace" font-size="9.5" fill="#111111" font-weight="normal" text-anchor="start">youtube.com</text><text x="316" y="158" font-family="Inconsolata, 'SF Mono', 'DejaVu Sans Mono', Menlo, monospace" font-size="9.5" fill="#666666" font-weight="normal" text-anchor="end">214</text><text x="64" y="173" font-family="Inconsolata, 'SF Mono', 'DejaVu Sans Mono', Menlo, monospace" font-size="9" fill="#999999" font-weight="normal" text-anchor="start">2.</text><text x="82" y="173" font-family="Inconsolata, 'SF Mono', 'DejaVu Sans Mono', Menlo, monospace" font-size="9.5" fill="#111111" font-weight="normal" text-anchor="start">apple.com</text><text x="316" y="173" font-family="Inconsolata, 'SF Mono', 'DejaVu Sans Mono', Menlo, monospace" font-size="9.5" fill="#666666" font-weight="normal" text-anchor="end">98</text><text x="64" y="188" font-family="Inconsolata, 'SF Mono', 'DejaVu Sans Mono', Menlo, monospace" font-size="9" fill="#999999" font-weight="normal" text-anchor="start">3.</text><text x="82" y="188" font-family="Inconsolata, 'SF Mono', 'DejaVu Sans Mono', Menlo, monospace" font-size="9.5" fill="#111111" font-weight="normal" text-anchor="start">wikipedia.org</text><text x="316" y="188" font-family="Inconsolata, 'SF Mono', 'DejaVu Sans Mono', Menlo, monospace" font-size="9.5" fill="#666666" font-weight="normal" text-anchor="end">61</text><text x="64" y="203" font-family="Inconsolata, 'SF Mono', 'DejaVu Sans Mono', Menlo, monospace" font-size="9" fill="#999999" font-weight="normal" text-anchor="start">4.</text><text x="82" y="203" font-family="Inconsolata, 'SF Mono', 'DejaVu Sans Mono', Menlo, monospace" font-size="9.5" fill="#111111" font-weight="normal" text-anchor="start">github.com</text><text x="316" y="203" font-family="Inconsolata, 'SF Mono', 'DejaVu Sans Mono', Menlo, monospace" font-size="9.5" fill="#666666" font-weight="normal" text-anchor="end">44</text><text x="64" y="218" font-family="Inconsolata, 'SF Mono', 'DejaVu Sans Mono', Menlo, monospace" font-size="9" fill="#999999" font-weight="normal" text-anchor="start">5.</text><text x="82" y="218" font-family="Inconsolata, 'SF Mono', 'DejaVu Sans Mono', Menlo, monospace" font-size="9.5" fill="#111111" font-weight="normal" text-anchor="start">roblox.com</text><text x="316" y="218" font-family="Inconsolata, 'SF Mono', 'DejaVu Sans Mono', Menlo, monospace" font-size="9.5" fill="#666666" font-weight="normal" text-anchor="end">30</text><text x="56" y="246" font-family="Inconsolata, 'SF Mono', 'DejaVu Sans Mono', Menlo, monospace" font-size="9" fill="#666666" font-weight="bold" text-anchor="start" letter-spacing="1.2">DNS BLOCKED · 1H</text><line x1="56" y1="252" x2="324" y2="252" stroke="#eeeeee" stroke-width="1"/><rect x="52" y="258" width="276" height="62" rx="3" fill="#f8f8f8" stroke="#dddddd" stroke-width="1"/><text x="64" y="276" font-family="Inconsolata, 'SF Mono', 'DejaVu Sans Mono', Menlo, monospace" font-size="9" fill="#999999" font-weight="normal" text-anchor="start">1.</text><text x="82" y="276" font-family="Inconsolata, 'SF Mono', 'DejaVu Sans Mono', Menlo, monospace" font-size="9.5" fill="#111111" font-weight="normal" text-anchor="start">ads.example.net</text><text x="316" y="276" font-family="Inconsolata, 'SF Mono', 'DejaVu Sans Mono', Menlo, monospace" font-size="9.5" fill="#666666" font-weight="normal" text-anchor="end">51</text><text x="64" y="291" font-family="Inconsolata, 'SF Mono', 'DejaVu Sans Mono', Menlo, monospace" font-size="9" fill="#999999" font-weight="normal" text-anchor="start">2.</text><text x="82" y="291" font-family="Inconsolata, 'SF Mono', 'DejaVu Sans Mono', Menlo, monospace" font-size="9.5" fill="#111111" font-weight="normal" text-anchor="start">track.doubleclick.net</text><text x="316" y="291" font-family="Inconsolata, 'SF Mono', 'DejaVu Sans Mono', Menlo, monospace" font-size="9.5" fill="#666666" font-weight="normal" text-anchor="end">33</text><text x="64" y="306" font-family="Inconsolata, 'SF Mono', 'DejaVu Sans Mono', Menlo, monospace" font-size="9" fill="#999999" font-weight="normal" text-anchor="start">3.</text><text x="82" y="306" font-family="Inconsolata, 'SF Mono', 'DejaVu Sans Mono', Menlo, monospace" font-size="9.5" fill="#111111" font-weight="normal" text-anchor="start">tiktok.com</text><text x="316" y="306" font-family="Inconsolata, 'SF Mono', 'DejaVu Sans Mono', Menlo, monospace" font-size="9.5" fill="#666666" font-weight="normal" text-anchor="end">12</text><text x="56" y="334" font-family="Inconsolata, 'SF Mono', 'DejaVu Sans Mono', Menlo, monospace" font-size="9" fill="#666666" font-weight="bold" text-anchor="start" letter-spacing="1.2">BANDWIDTH · 10 MIN</text><line x1="56" y1="340" x2="324" y2="340" stroke="#eeeeee" stroke-width="1"/><rect x="52" y="346" width="276" height="64" rx="3" fill="#f8f8f8" stroke="#dddddd" stroke-width="1"/><polygon points="64.0,398.4 86.9,394.8 109.8,396.6 132.7,387.6 155.6,389.4 178.5,380.4 201.5,384.0 224.4,373.2 247.3,378.6 270.2,369.6 293.1,376.8 316.0,382.2 316.0,402.0 64.0,402.0" fill="#2a7a5a" opacity="0.15"/><polyline points="64.0,398.4 86.9,394.8 109.8,396.6 132.7,387.6 155.6,389.4 178.5,380.4 201.5,384.0 224.4,373.2 247.3,378.6 270.2,369.6 293.1,376.8 316.0,382.2" fill="none" stroke="#2a7a5a" stroke-width="1.3" opacity="0.7"/><text x="64" y="365" font-family="Inconsolata, 'SF Mono', 'DejaVu Sans Mono', Menlo, monospace" font-size="8.5" fill="#999999" font-weight="normal" text-anchor="start">⬇ in 4.2 MB</text><text x="56" y="422" font-family="Inconsolata, 'SF Mono', 'DejaVu Sans Mono', Menlo, monospace" font-size="9" fill="#666666" font-weight="bold" text-anchor="start" letter-spacing="1.2">REQUESTS · 10 MIN</text><line x1="56" y1="428" x2="324" y2="428" stroke="#eeeeee" stroke-width="1"/><rect x="52" y="434" width="276" height="62" rx="3" fill="#f8f8f8" stroke="#dddddd" stroke-width="1"/><polygon points="64.0,477.8 86.9,471.0 109.8,481.2 132.7,467.6 155.6,474.4 178.5,464.2 201.5,471.0 224.4,477.8 247.3,467.6 270.2,460.8 293.1,471.0 316.0,474.4 316.0,488.0 64.0,488.0" fill="#2a7a5a" opacity="0.15"/><polyline points="64.0,477.8 86.9,471.0 109.8,481.2 132.7,467.6 155.6,474.4 178.5,464.2 201.5,471.0 224.4,477.8 247.3,467.6 270.2,460.8 293.1,471.0 316.0,474.4" fill="none" stroke="#2a7a5a" stroke-width="1.3" opacity="0.7"/><text x="64" y="453" font-family="Inconsolata, 'SF Mono', 'DejaVu Sans Mono', Menlo, monospace" font-size="8.5" fill="#999999" font-weight="normal" text-anchor="start">128</text><rect x="40" y="664" width="300" height="46" rx="0" fill="#f8f8f8"/><line x1="40" y1="664" x2="340" y2="664" stroke="#dddddd" stroke-width="1"/><circle cx="77.5" cy="680" r="3" fill="#2a7a5a"/><circle cx="77.5" cy="680" r="5" fill="#2a7a5a" opacity="0.35"/><text x="77.5" y="698" font-family="Inconsolata, 'SF Mono', 'DejaVu Sans Mono', Menlo, monospace" font-size="8.5" fill="#2a7a5a" font-weight="normal" text-anchor="middle">dashboard</text><circle cx="152.5" cy="680" r="3" fill="none" stroke="#666666" stroke-width="1"/><text x="152.5" y="698" font-family="Inconsolata, 'SF Mono', 'DejaVu Sans Mono', Menlo, monospace" font-size="8.5" fill="#666666" font-weight="normal" text-anchor="middle">users</text><circle cx="227.5" cy="680" r="3" fill="none" stroke="#666666" stroke-width="1"/><text x="227.5" y="698" font-family="Inconsolata, 'SF Mono', 'DejaVu Sans Mono', Menlo, monospace" font-size="8.5" fill="#666666" font-weight="normal" text-anchor="middle">logs</text><circle cx="302.5" cy="680" r="3" fill="none" stroke="#666666" stroke-width="1"/><text x="302.5" y="698" font-family="Inconsolata, 'SF Mono', 'DejaVu Sans Mono', Menlo, monospace" font-size="8.5" fill="#666666" font-weight="normal" text-anchor="middle">settings</text></g><text x="190.0" y="744" font-family="Inconsolata, 'SF Mono', 'DejaVu Sans Mono', Menlo, monospace" font-size="13" fill="#111111" font-weight="bold" text-anchor="middle">Dashboard</text><rect x="374" y="64" width="312" height="652" rx="30" fill="#cccccc"/><rect x="380" y="70" width="300" height="640" rx="26" fill="#ffffff"/><text x="396" y="85" font-family="Inconsolata, 'SF Mono', 'DejaVu Sans Mono', Menlo, monospace" font-size="8.5" fill="#666666" font-weight="bold" text-anchor="start">9:41</text><text x="664" y="85" font-family="Inconsolata, 'SF Mono', 'DejaVu Sans Mono', Menlo, monospace" font-size="8.5" fill="#666666" font-weight="normal" text-anchor="end">5G  100%</text><clipPath id="clip38070"><rect x="380" y="70" width="300" height="640" rx="26"/></clipPath><g clip-path="url(#clip38070)"><text x="396" y="96" font-family="Inconsolata, 'SF Mono', 'DejaVu Sans Mono', Menlo, monospace" font-size="16" fill="#111111" font-weight="bold" text-anchor="start">evan-proxy</text><text x="664" y="96" font-family="Inconsolata, 'SF Mono', 'DejaVu Sans Mono', Menlo, monospace" font-size="9" fill="#666666" font-weight="normal" text-anchor="end">dark  ·  logout</text><line x1="396" y1="108" x2="664" y2="108" stroke="#dddddd" stroke-width="1"/><text x="396" y="128" font-family="Inconsolata, 'SF Mono', 'DejaVu Sans Mono', Menlo, monospace" font-size="9" fill="#666666" font-weight="bold" text-anchor="start" letter-spacing="1.2">PROXY USERS</text><line x1="396" y1="134" x2="664" y2="134" stroke="#eeeeee" stroke-width="1"/><rect x="392" y="140" width="276" height="340" rx="3" fill="#f8f8f8" stroke="#dddddd" stroke-width="1"/><circle cx="406" cy="155" r="4" fill="#2a7a5a"/><circle cx="406" cy="155" r="6" fill="#2a7a5a" opacity="0.35"/><text x="418" y="158" font-family="Inconsolata, 'SF Mono', 'DejaVu Sans Mono', Menlo, monospace" font-size="11" fill="#111111" font-weight="bold" text-anchor="start">evan</text><text x="656" y="158" font-family="Inconsolata, 'SF Mono', 'DejaVu Sans Mono', Menlo, monospace" font-size="9" fill="#2a7a5a" font-weight="normal" text-anchor="end">enabled</text><rect x="406" y="166" width="56.0" height="18" rx="2" fill="none" stroke="#666666" stroke-width="1"/><text x="434.0" y="178.5" font-family="Inconsolata, 'SF Mono', 'DejaVu Sans Mono', Menlo, monospace" font-size="8.5" fill="#666666" font-weight="normal" text-anchor="middle">disable</text><rect x="467.0" y="166" width="62.0" height="18" rx="2" fill="none" stroke="#666666" stroke-width="1"/><text x="498.0" y="178.5" font-family="Inconsolata, 'SF Mono', 'DejaVu Sans Mono', Menlo, monospace" font-size="8.5" fill="#666666" font-weight="normal" text-anchor="middle">schedule</text><rect x="534.0" y="166" width="32.0" height="18" rx="2" fill="none" stroke="#666666" stroke-width="1"/><text x="550.0" y="178.5" font-family="Inconsolata, 'SF Mono', 'DejaVu Sans Mono', Menlo, monospace" font-size="8.5" fill="#666666" font-weight="normal" text-anchor="middle">dns</text><rect x="571.0" y="166" width="20.0" height="18" rx="2" fill="none" stroke="#666666" stroke-width="1"/><text x="581.0" y="178.5" font-family="Inconsolata, 'SF Mono', 'DejaVu Sans Mono', Menlo, monospace" font-size="8.5" fill="#666666" font-weight="normal" text-anchor="middle">…</text><line x1="398" y1="192" x2="662" y2="192" stroke="#eeeeee" stroke-width="1"/><circle cx="406" cy="201" r="4" fill="#cc4444"/><circle cx="406" cy="201" r="6" fill="#cc4444" opacity="0.35"/><text x="418" y="204" font-family="Inconsolata, 'SF Mono', 'DejaVu Sans Mono', Menlo, monospace" font-size="11" fill="#111111" font-weight="bold" text-anchor="start">mia</text><text x="656" y="204" font-family="Inconsolata, 'SF Mono', 'DejaVu Sans Mono', Menlo, monospace" font-size="9" fill="#cc4444" font-weight="normal" text-anchor="end">disabled</text><rect x="406" y="212" width="50.0" height="18" rx="2" fill="none" stroke="#2a7a5a" stroke-width="1"/><text x="431.0" y="224.5" font-family="Inconsolata, 'SF Mono', 'DejaVu Sans Mono', Menlo, monospace" font-size="8.5" fill="#2a7a5a" font-weight="normal" text-anchor="middle">enable</text><rect x="461.0" y="212" width="62.0" height="18" rx="2" fill="none" stroke="#666666" stroke-width="1"/><text x="492.0" y="224.5" font-family="Inconsolata, 'SF Mono', 'DejaVu Sans Mono', Menlo, monospace" font-size="8.5" fill="#666666" font-weight="normal" text-anchor="middle">schedule</text><rect x="528.0" y="212" width="38.0" height="18" rx="2" fill="none" stroke="#666666" stroke-width="1"/><text x="547.0" y="224.5" font-family="Inconsolata, 'SF Mono', 'DejaVu Sans Mono', Menlo, monospace" font-size="8.5" fill="#666666" font-weight="normal" text-anchor="middle">port</text><rect x="571.0" y="212" width="20.0" height="18" rx="2" fill="none" stroke="#666666" stroke-width="1"/><text x="581.0" y="224.5" font-family="Inconsolata, 'SF Mono', 'DejaVu Sans Mono', Menlo, monospace" font-size="8.5" fill="#666666" font-weight="normal" text-anchor="middle">…</text><line x1="398" y1="238" x2="662" y2="238" stroke="#eeeeee" stroke-width="1"/><circle cx="406" cy="247" r="4" fill="#aa8855"/><circle cx="406" cy="247" r="6" fill="#aa8855" opacity="0.35"/><text x="418" y="250" font-family="Inconsolata, 'SF Mono', 'DejaVu Sans Mono', Menlo, monospace" font-size="11" fill="#111111" font-weight="bold" text-anchor="start">leo</text><text x="656" y="250" font-family="Inconsolata, 'SF Mono', 'DejaVu Sans Mono', Menlo, monospace" font-size="9" fill="#aa8855" font-weight="normal" text-anchor="end">downtime</text><rect x="406" y="258" width="56.0" height="18" rx="2" fill="none" stroke="#666666" stroke-width="1"/><text x="434.0" y="270.5" font-family="Inconsolata, 'SF Mono', 'DejaVu Sans Mono', Menlo, monospace" font-size="8.5" fill="#666666" font-weight="normal" text-anchor="middle">disable</text><rect x="467.0" y="258" width="62.0" height="18" rx="2" fill="none" stroke="#666666" stroke-width="1"/><text x="498.0" y="270.5" font-family="Inconsolata, 'SF Mono', 'DejaVu Sans Mono', Menlo, monospace" font-size="8.5" fill="#666666" font-weight="normal" text-anchor="middle">override</text><rect x="534.0" y="258" width="62.0" height="18" rx="2" fill="none" stroke="#666666" stroke-width="1"/><text x="565.0" y="270.5" font-family="Inconsolata, 'SF Mono', 'DejaVu Sans Mono', Menlo, monospace" font-size="8.5" fill="#666666" font-weight="normal" text-anchor="middle">schedule</text><rect x="601.0" y="258" width="20.0" height="18" rx="2" fill="none" stroke="#666666" stroke-width="1"/><text x="611.0" y="270.5" font-family="Inconsolata, 'SF Mono', 'DejaVu Sans Mono', Menlo, monospace" font-size="8.5" fill="#666666" font-weight="normal" text-anchor="middle">…</text><line x1="398" y1="284" x2="662" y2="284" stroke="#eeeeee" stroke-width="1"/><circle cx="406" cy="293" r="4" fill="#7a5aa0"/><circle cx="406" cy="293" r="6" fill="#7a5aa0" opacity="0.35"/><text x="418" y="296" font-family="Inconsolata, 'SF Mono', 'DejaVu Sans Mono', Menlo, monospace" font-size="11" fill="#111111" font-weight="bold" text-anchor="start">zoe</text><text x="656" y="296" font-family="Inconsolata, 'SF Mono', 'DejaVu Sans Mono', Menlo, monospace" font-size="9" fill="#7a5aa0" font-weight="normal" text-anchor="end">override 45m</text><rect x="406" y="304" width="56.0" height="18" rx="2" fill="none" stroke="#666666" stroke-width="1"/><text x="434.0" y="316.5" font-family="Inconsolata, 'SF Mono', 'DejaVu Sans Mono', Menlo, monospace" font-size="8.5" fill="#666666" font-weight="normal" text-anchor="middle">disable</text><rect x="467.0" y="304" width="104.0" height="18" rx="2" fill="none" stroke="#666666" stroke-width="1"/><text x="519.0" y="316.5" font-family="Inconsolata, 'SF Mono', 'DejaVu Sans Mono', Menlo, monospace" font-size="8.5" fill="#666666" font-weight="normal" text-anchor="middle">cancel override</text><rect x="576.0" y="304" width="20.0" height="18" rx="2" fill="none" stroke="#666666" stroke-width="1"/><text x="586.0" y="316.5" font-family="Inconsolata, 'SF Mono', 'DejaVu Sans Mono', Menlo, monospace" font-size="8.5" fill="#666666" font-weight="normal" text-anchor="middle">…</text><line x1="398" y1="330" x2="662" y2="330" stroke="#eeeeee" stroke-width="1"/><rect x="406" y="348" width="90" height="24" rx="2" fill="#ffffff" stroke="#dddddd" stroke-width="1"/><text x="414" y="364" font-family="Inconsolata, 'SF Mono', 'DejaVu Sans Mono', Menlo, monospace" font-size="9" fill="#999999" font-weight="normal" text-anchor="start">username</text><rect x="502" y="348" width="90" height="24" rx="2" fill="#ffffff" stroke="#dddddd" stroke-width="1"/><text x="510" y="364" font-family="Inconsolata, 'SF Mono', 'DejaVu Sans Mono', Menlo, monospace" font-size="9" fill="#999999" font-weight="normal" text-anchor="start">password</text><rect x="598" y="348" width="56" height="24" rx="2" fill="#f8f8f8" stroke="#2a7a5a" stroke-width="1"/><text x="626" y="364" font-family="Inconsolata, 'SF Mono', 'DejaVu Sans Mono', Menlo, monospace" font-size="9" fill="#2a7a5a" font-weight="normal" text-anchor="middle">add</text><rect x="380" y="664" width="300" height="46" rx="0" fill="#f8f8f8"/><line x1="380" y1="664" x2="680" y2="664" stroke="#dddddd" stroke-width="1"/><circle cx="417.5" cy="680" r="3" fill="none" stroke="#666666" stroke-width="1"/><text x="417.5" y="698" font-family="Inconsolata, 'SF Mono', 'DejaVu Sans Mono', Menlo, monospace" font-size="8.5" fill="#666666" font-weight="normal" text-anchor="middle">dashboard</text><circle cx="492.5" cy="680" r="3" fill="#2a7a5a"/><circle cx="492.5" cy="680" r="5" fill="#2a7a5a" opacity="0.35"/><text x="492.5" y="698" font-family="Inconsolata, 'SF Mono', 'DejaVu Sans Mono', Menlo, monospace" font-size="8.5" fill="#2a7a5a" font-weight="normal" text-anchor="middle">users</text><circle cx="567.5" cy="680" r="3" fill="none" stroke="#666666" stroke-width="1"/><text x="567.5" y="698" font-family="Inconsolata, 'SF Mono', 'DejaVu Sans Mono', Menlo, monospace" font-size="8.5" fill="#666666" font-weight="normal" text-anchor="middle">logs</text><circle cx="642.5" cy="680" r="3" fill="none" stroke="#666666" stroke-width="1"/><text x="642.5" y="698" font-family="Inconsolata, 'SF Mono', 'DejaVu Sans Mono', Menlo, monospace" font-size="8.5" fill="#666666" font-weight="normal" text-anchor="middle">settings</text></g><text x="530.0" y="744" font-family="Inconsolata, 'SF Mono', 'DejaVu Sans Mono', Menlo, monospace" font-size="13" fill="#111111" font-weight="bold" text-anchor="middle">Users</text></svg>